# xmcd
#
# Track frame offsets:
#	150
#	31498
#	51005
#	71157
#	93599
#	113751
#	128646
#
# Disc length: 1996 seconds
#
# Revision: 1
# Processed by: cddbd v1.5.2PL0 Copyright (c) Steve Scherf et al.
# Submitted via: audiograbber 1.83.01
#
DISCID=5c07ca07
DTITLE=Grateful Dead - 74-xx-xx Mars Hotel Sessions
DYEAR=1900
DGENRE=
TTITLE0=Unbroken Chain 4
TTITLE1=Scarlet Begonias 2
TTITLE2=Pride of Cucamonga 3
TTITLE3=Ship Of Fools 2
TTITLE4=Money Money 3
TTITLE5=Loose Lucy 2
TTITLE6=US Blues 2
EXTD=
EXTT0=
EXTT1=
EXTT2=
EXTT3=
EXTT4=
EXTT5=
EXTT6=
PLAYORDER=
